<svg width="65" height="64" viewBox="0 0 65 64" fill="none" xmlns="http://www.w3.org/2000/svg">
<g clip-path="url(#clip0)">
<path d="M39.1516 49.29C51.9919 44.0075 61.509 37.5569 60.4086 34.8821C59.3082 32.2073 48.007 34.3212 35.1667 39.6036C22.3264 44.8861 12.8093 51.3367 13.9097 54.0115C15.0101 56.6863 26.3113 54.5724 39.1516 49.29Z" fill="#BD571D"/>
<path d="M37.5995 45.472C43.8781 42.8904 48.327 39.2386 47.5362 37.3154C46.7455 35.3923 41.0146 35.9261 34.736 38.5077C28.4573 41.0893 24.0084 44.7411 24.7992 46.6642C25.5899 48.5873 31.3208 48.0536 37.5995 45.472Z" fill="#844415"/>
<path d="M30.179 48.08L29.28 42.05C29.121 40.986 27.742 40.305 26.193 40.537C24.644 40.769 23.521 41.819 23.68 42.886L24.581 48.916C21.628 50.161 19.746 52.522 20.104 54.907C20.563 57.985 24.539 59.937 28.992 59.27C33.436 58.606 36.67 55.578 36.214 52.501C35.856 50.114 33.366 48.409 30.174 48.08" fill="#FB9A41"/>
<path d="M23.278 54.43C22.922 52.043 24.808 49.682 27.754 48.439L26.853 42.409C26.756 41.749 27.155 41.094 27.83 40.638C27.2989 40.4817 26.7396 40.4462 26.193 40.534C24.644 40.766 23.521 41.816 23.68 42.883L24.581 48.913C21.628 50.158 19.746 52.519 20.104 54.904C20.563 57.982 24.539 59.934 28.992 59.267C29.523 59.1862 30.0481 59.0707 30.564 58.921C26.797 58.963 23.683 57.129 23.278 54.43Z" fill="#E07C34"/>
<path d="M35.1399 52.733C35.2499 53.479 35.1459 54.198 34.8819 54.81C34.8149 54.96 34.7389 55.107 34.6519 55.242C34.3359 55.705 33.4759 56.51 33.3339 55.853C33.2752 55.5698 33.1987 55.2906 33.1049 55.017C33.0574 54.883 33.0064 54.7503 32.9519 54.619C32.3399 52.759 30.9989 53.029 29.9109 52.312C29.3719 51.987 29.7539 51.253 30.0429 50.904C30.1389 50.771 30.2399 50.652 30.3429 50.543C30.7599 50.105 31.2309 49.835 31.7579 49.789C31.9132 49.7668 32.0701 49.7578 32.2269 49.762C33.6349 49.82 34.8879 51.055 35.1399 52.733Z" fill="#F9A678"/>
<path d="M27.493 6.80899C28.216 8.56499 26.739 10.839 24.197 11.882C21.649 12.932 19.004 12.354 18.281 10.597C17.558 8.84099 19.033 6.56699 21.582 5.52099C24.121 4.47599 26.77 5.05199 27.493 6.80899Z" fill="#FB9A41"/>
<path d="M26.051 6.481C26.187 6.81 26.158 7.179 25.999 7.533C25.9572 7.62278 25.9095 7.70964 25.856 7.793C25.647 8.088 25.049 8.677 24.896 8.398C24.7995 8.21144 24.6728 8.04215 24.521 7.897C23.928 7.157 22.926 7.602 22.055 7.518C21.623 7.493 21.862 7.051 22.057 6.816C22.122 6.73 22.189 6.65 22.265 6.573C22.5444 6.26312 22.8937 6.02449 23.284 5.877C23.4016 5.83079 23.521 5.78942 23.642 5.753C24.712 5.448 25.747 5.74 26.051 6.481Z" fill="#F9A678"/>
<path d="M21.86 8.26298C21.479 7.33898 21.629 6.28898 22.18 5.30798C21.9776 5.37097 21.7777 5.44202 21.581 5.52098C19.033 6.56898 17.561 8.84098 18.28 10.597C19.003 12.353 21.648 12.931 24.196 11.882C25.131 11.499 25.923 10.947 26.514 10.317C24.368 10.547 22.484 9.78798 21.86 8.26298Z" fill="#E07C34"/>
<path fill-rule="evenodd" clip-rule="evenodd" d="M50.6901 30.05C46.7381 28.139 43.9821 25.196 41.8531 21.651C39.8431 18.294 38.2231 14.748 36.6631 11.186C35.7181 9.03604 34.1381 8.24404 31.6771 8.41904C29.9873 8.54364 28.3135 8.83132 26.6791 9.27804C25.7401 9.61704 24.8071 9.96904 23.8631 10.328C22.8531 10.772 21.8631 11.215 20.8751 11.676C20.3701 11.913 19.8651 12.152 19.3641 12.393C18.0875 13.149 16.8775 14.0121 15.7471 14.973C13.8751 16.578 13.3081 18.252 14.1501 20.447C15.5471 24.074 16.8911 27.731 17.8231 31.537C18.8061 35.557 18.9151 39.587 17.4521 43.725C16.7001 45.852 15.7921 47.927 14.9041 50.01C14.3341 51.343 13.7891 52.68 13.8921 54.109C14.0821 54.218 14.2171 54.162 14.3131 53.968C15.5431 51.508 17.8021 49.903 20.0421 48.324C23.9001 45.604 28.1021 43.435 32.3941 41.426C33.3791 40.963 34.3761 40.525 35.3821 40.081C36.4091 39.686 37.4281 39.299 38.4541 38.935C42.9221 37.339 47.4301 35.925 52.0861 35.146C54.7871 34.691 57.5231 34.245 60.1261 35.125C60.3331 35.197 60.4661 35.143 60.5221 34.933C59.5931 33.846 58.2601 33.278 56.9211 32.731C54.8231 31.874 52.7191 31.036 50.6891 30.055" fill="#FB9A41"/>
<path fill-rule="evenodd" clip-rule="evenodd" d="M56.91 32.71C54.812 31.855 52.708 31.015 50.678 30.036C46.726 28.125 43.97 25.181 41.839 21.635C39.829 18.278 38.209 14.732 36.65 11.172C35.705 9.02002 34.125 8.23002 31.663 8.40602C29.9739 8.52898 28.3006 8.81599 26.667 9.26302C25.729 9.60302 24.796 9.95502 23.851 10.315C23.288 10.562 22.73 10.82 22.17 11.071C22.528 10.937 22.889 10.799 23.252 10.667C24.893 10.225 26.552 9.93102 28.25 9.80802C30.71 9.63402 32.29 10.426 33.235 12.579C34.797 16.14 36.415 19.685 38.424 23.04C40.555 26.59 43.311 29.53 47.263 31.441C49.293 32.422 51.398 33.26 53.495 34.115C53.958 34.303 54.415 34.505 54.859 34.719C56.633 34.527 58.403 34.529 60.115 35.107C60.32 35.175 60.454 35.122 60.511 34.914C59.582 33.822 58.249 33.255 56.91 32.71Z" fill="#F9A678"/>
<path fill-rule="evenodd" clip-rule="evenodd" d="M21.9501 45.943C22.8391 43.858 23.7461 41.782 24.4981 39.657C25.9611 35.519 25.8521 31.488 24.8671 27.469C23.9371 23.668 22.5911 20.013 21.1961 16.379C20.3541 14.185 20.9221 12.51 22.7951 10.903C22.9101 10.802 23.0321 10.708 23.1511 10.612C22.3841 10.956 21.6171 11.289 20.8631 11.645C20.3561 11.882 19.8511 12.121 19.3501 12.361C18.074 13.1161 16.8646 13.9785 15.7351 14.939C13.8611 16.544 13.2941 18.221 14.1381 20.413C15.5341 24.043 16.8791 27.702 17.8101 31.503C18.7951 35.523 18.9041 39.553 17.4391 43.689C16.6871 45.817 15.7811 47.891 14.8931 49.978C14.3231 51.309 13.7781 52.646 13.8811 54.073C14.0711 54.184 14.2031 54.126 14.3001 53.933C15.5321 51.474 17.7891 49.87 20.0291 48.289C20.4791 47.975 20.9361 47.664 21.3951 47.36C21.5601 46.884 21.7491 46.41 21.9501 45.94" fill="#E07C34"/>
<path d="M62.67 27.553C62.322 27.048 61.977 26.543 61.633 26.048C61.58 25.968 61.56 25.9 61.522 25.828C61.476 25.75 61.425 25.671 61.392 25.583C61.338 25.4511 61.304 25.3119 61.291 25.17C61.289 25.143 61.274 25.118 61.27 25.086C60.884 20.006 58.097 14.925 53.587 11.354C51.164 9.43501 50.643 10.093 48.851 7.49001C48.12 6.42601 48.585 5.52201 49.467 5.86001C57.556 8.94401 64.413 18.9 64.408 27.555C64.409 28.5 63.398 28.613 62.67 27.553Z" fill="#109BDE"/>
<path d="M57.71 28.445L56.859 27.211C56.815 27.144 56.798 27.096 56.764 27.031C56.729 26.966 56.685 26.899 56.656 26.828C56.6145 26.7197 56.5876 26.6064 56.576 26.491C56.574 26.468 56.563 26.445 56.559 26.422C56.245 22.241 53.948 18.059 50.235 15.118C48.244 13.544 47.816 14.079 46.343 11.941C45.739 11.063 46.12 10.319 46.848 10.596C53.506 13.138 59.145 21.325 59.143 28.452C59.144 29.231 58.313 29.319 57.71 28.445Z" fill="#109BDE"/>
<path d="M8.48796 47.691L8.12496 45.901C8.10596 45.807 8.07096 45.744 8.04496 45.667C8.02196 45.581 7.99896 45.489 7.95896 45.403C7.90045 45.2734 7.82367 45.1528 7.73096 45.045C7.71396 45.024 7.70396 44.996 7.68696 44.972C4.29896 41.166 2.57796 35.633 3.13996 29.912C3.44196 26.836 4.27796 26.917 3.64896 23.82C3.38896 22.554 2.41896 22.261 2.04796 23.131C-1.35104 31.094 1.04796 42.939 7.28296 48.948C7.96396 49.606 8.74296 48.956 8.48796 47.694" fill="#109BDE"/>
<path d="M12.5699 44.745C12.4689 44.259 12.3689 43.76 12.2719 43.278C12.2529 43.198 12.2299 43.152 12.2049 43.085C12.1839 43.014 12.1669 42.935 12.1359 42.865C12.0871 42.7597 12.0238 42.6618 11.9479 42.574C11.9329 42.554 11.9249 42.532 11.9119 42.511C9.12093 39.383 7.70793 34.824 8.16893 30.114C8.41993 27.587 9.10193 27.65 8.58593 25.104C8.37493 24.061 7.57393 23.817 7.26793 24.534C4.47193 31.089 6.44593 40.834 11.5759 45.781C12.1389 46.321 12.7799 45.784 12.5699 44.743" fill="#109BDE"/>
</g>
<defs>
<clipPath id="clip0">
<rect width="64" height="64" fill="white" transform="translate(0.5)"/>
</clipPath>
</defs>
</svg>
