<svg width="18" height="19" viewBox="0 0 18 19" fill="none" xmlns="http://www.w3.org/2000/svg">
<path d="M16.9419 12.0581L15.25 10.3663V8.125C15.2481 6.57615 14.6719 5.08303 13.6329 3.93436C12.5939 2.7857 11.1659 2.06308 9.625 1.90625V0.625H8.375V1.90625C6.83411 2.06308 5.4061 2.7857 4.36711 3.93436C3.32811 5.08303 2.75194 6.57615 2.75 8.125V10.3663L1.05812 12.0581C0.940907 12.1753 0.875035 12.3343 0.875 12.5V14.375C0.875 14.5408 0.940848 14.6997 1.05806 14.8169C1.17527 14.9342 1.33424 15 1.5 15H5.875V15.4856C5.8614 16.2785 6.14088 17.0486 6.65986 17.6482C7.17885 18.2478 7.90085 18.6348 8.6875 18.735C9.12199 18.7781 9.56068 18.7298 9.97537 18.5931C10.3901 18.4565 10.7716 18.2346 11.0953 17.9416C11.4191 17.6487 11.678 17.2913 11.8553 16.8923C12.0326 16.4933 12.1245 16.0616 12.125 15.625V15H16.5C16.6658 15 16.8247 14.9342 16.9419 14.8169C17.0592 14.6997 17.125 14.5408 17.125 14.375V12.5C17.125 12.3343 17.0591 12.1753 16.9419 12.0581ZM10.875 15.625C10.875 16.1223 10.6775 16.5992 10.3258 16.9508C9.97419 17.3025 9.49728 17.5 9 17.5C8.50272 17.5 8.02581 17.3025 7.67417 16.9508C7.32254 16.5992 7.125 16.1223 7.125 15.625V15H10.875V15.625ZM15.875 13.75H2.125V12.7588L3.81687 11.0669C3.93409 10.9497 3.99996 10.7907 4 10.625V8.125C4 6.79892 4.52678 5.52715 5.46447 4.58947C6.40215 3.65178 7.67392 3.125 9 3.125C10.3261 3.125 11.5979 3.65178 12.5355 4.58947C13.4732 5.52715 14 6.79892 14 8.125V10.625C14 10.7907 14.0659 10.9497 14.1831 11.0669L15.875 12.7588V13.75Z" fill="#710D21"/>
</svg>
