<svg width="113" height="112" viewBox="0 0 113 112" fill="none" xmlns="http://www.w3.org/2000/svg">
<g clip-path="url(#clip0)">
<rect x="2.74292" y="2.24292" width="107.514" height="107.514" rx="53.7571" fill="#FF2E59"/>
<path fill-rule="evenodd" clip-rule="evenodd" d="M42.6876 41.1478C40.2824 39.3077 34.0831 34.8339 28.7588 33.2781C22.7244 31.5148 22.1378 38.0937 21.9027 40.7302C21.8741 41.0518 21.8506 41.3147 21.8232 41.4967C21.6364 42.7343 21.3191 48.3799 22.2277 53.7404C17.232 61.0688 15.3179 73.0547 15.0039 79.8619C15.0039 88.053 17.4687 91.7682 20.2562 95.9698C20.6653 96.5863 21.0813 97.2133 21.4974 97.8664C22.0531 98.7363 22.706 99.5401 23.4437 100.262C29.7935 106.508 39.3577 112.207 56.7757 112.207H56.8168C57.0496 112.207 57.2817 112.206 57.5129 112.204C74.6136 112.046 83.8471 106.42 90.1077 100.262C96.4576 94.0168 99.6291 84.7253 97.7554 76.1899C97.5108 75.0755 97.2892 73.9292 97.0627 72.7572C96.0248 67.3876 94.8826 61.4786 90.9408 55.632C92.305 49.7844 91.9327 42.8813 91.7237 41.4966C91.6962 41.3146 91.6728 41.0516 91.6441 40.7301L91.644 40.7299C91.4089 38.0932 90.8222 31.5149 84.788 33.2781C79.4647 34.8336 73.2667 39.306 70.8606 41.1467C63.1594 38.7788 56.7757 39.1318 56.7757 39.1318C56.7757 39.1318 50.3903 38.7787 42.6876 41.1478Z" fill="#C47031"/>
<path fill-rule="evenodd" clip-rule="evenodd" d="M15.0039 79.8618C15.3179 73.0546 17.232 61.0687 22.2277 53.7404C21.3191 48.3799 21.6364 42.7342 21.8232 41.4966C21.8506 41.3146 21.8741 41.0517 21.9027 40.7302C22.1378 38.0936 22.7244 31.5148 28.7588 33.278C34.0831 34.8338 40.2824 39.3076 42.6876 41.1477C50.3903 38.7787 56.7757 39.1317 56.7757 39.1317C56.7757 39.1317 63.1594 38.7788 70.8605 41.1467C73.2667 39.306 79.4647 34.8335 84.788 33.278C90.8222 31.5149 91.4089 38.0932 91.644 40.7298L91.6441 40.73L91.6441 40.7303C91.6728 41.0518 91.6962 41.3146 91.7237 41.4965C91.9327 42.8812 92.305 49.7843 90.9408 55.632C94.8826 61.4785 96.0248 67.3876 97.0626 72.7572C97.2892 73.9292 97.5107 75.0755 97.7554 76.1898C99.6291 84.7252 96.4576 94.0167 90.1077 100.262C83.8471 106.419 74.6135 112.046 57.5129 112.204C57.2817 112.206 57.0496 112.207 56.8168 112.207H56.7757C39.3577 112.207 29.7935 106.508 23.4437 100.262C22.706 99.54 22.0531 98.7362 21.4974 97.8663C21.0813 97.2132 20.6653 96.5863 20.2563 95.9697C17.4687 91.7681 15.0039 88.053 15.0039 79.8618ZM19.9103 103.863C18.9005 102.874 18.0066 101.773 17.2457 100.582L17.2427 100.577C16.8555 99.9697 16.465 99.3808 16.0523 98.7589L15.9601 98.6199C14.6167 96.5958 13.0465 94.2297 11.8834 91.2421C10.6627 88.1067 9.95883 84.4988 9.95886 79.8618L9.95886 79.7455L9.96422 79.6294C10.1346 75.9364 10.7312 70.9201 11.9542 65.8201C13.0087 61.4227 14.5956 56.6764 16.9686 52.6253C16.3231 47.3771 16.5992 42.3258 16.8322 40.76C16.8329 40.7537 16.8364 40.7245 16.8425 40.6633C16.8521 40.5673 16.8626 40.4506 16.8776 40.2821L16.8776 40.2821C16.8821 40.2313 16.8869 40.1761 16.8921 40.1167C17.0018 38.8512 17.2778 35.6697 18.6992 32.9901C19.5089 31.4636 20.8705 29.7367 23.0972 28.7304C25.3648 27.7057 27.8196 27.7476 30.1738 28.4355C35.1767 29.8974 40.5166 33.3494 43.7057 35.6273C46.992 34.8008 49.9443 34.407 52.2117 34.2229C53.632 34.1075 54.7988 34.0731 55.6301 34.0686C56.0462 34.0663 56.3795 34.0715 56.6199 34.0779C56.6771 34.0794 56.7291 34.081 56.7757 34.0826C56.8222 34.081 56.8742 34.0794 56.9313 34.0779C57.1717 34.0715 57.5049 34.0663 57.9209 34.0686C58.752 34.0731 59.9185 34.1075 61.3385 34.2227C63.6053 34.4068 66.5568 34.8003 69.8423 35.6264C73.0314 33.3486 78.3707 29.8972 83.373 28.4355C85.7271 27.7476 88.1819 27.7057 90.4494 28.7303C92.6761 29.7366 94.0377 31.4634 94.8475 32.9898C96.2689 35.6693 96.5449 38.8508 96.6547 40.1162C96.6589 40.1656 96.663 40.212 96.6668 40.2554C96.6676 40.2643 96.6684 40.273 96.6691 40.2817L96.6692 40.2818C96.6842 40.4503 96.6947 40.5671 96.7043 40.6631C96.7104 40.7246 96.7139 40.7537 96.7146 40.7599C96.967 42.4573 97.3063 48.6535 96.2822 54.6456C99.8788 60.7358 101.043 66.7627 101.973 71.5766L102.016 71.7997C102.245 72.9835 102.454 74.0665 102.683 75.1081C104.969 85.5201 101.094 96.5333 93.6454 103.859L93.6453 103.859C86.4758 110.91 75.9997 117.078 57.5596 117.249C57.5606 117.249 57.5616 117.249 57.5626 117.249M57.5596 117.249C57.3127 117.251 57.065 117.252 56.8168 117.252H56.7757C38.0258 117.252 27.195 111.027 19.9103 103.863M96.7122 40.7437C96.7124 40.7447 96.7125 40.7457 96.7127 40.7466C96.7125 40.7456 96.7124 40.7446 96.7122 40.7437Z" fill="black"/>
<path d="M75.0151 42.7501C75.0151 42.7501 79.9757 38.7151 84.0789 37.5225C88.182 36.3298 88.129 41.4658 88.2823 42.4746C88.4357 43.4833 88.7333 49.3525 87.141 53.082C87.141 53.082 84.0789 45.6888 75.0151 42.7501Z" fill="#F4F4F4"/>
<path d="M38.0313 42.2829C38.0313 42.2829 33.4082 37.8652 29.4133 36.3492C25.4183 34.8332 25.0616 39.957 24.8284 40.9503C24.5951 41.9436 23.8303 47.7704 25.1202 51.6149C25.1202 51.6149 28.7704 44.3854 38.0313 42.2829Z" fill="#F4F4F4"/>
<path d="M97.3638 74.4145C87.9541 85.008 74.0941 77.9045 69.3312 72.5957C64.5684 67.2869 56.8714 67.1822 56.8714 67.1822C56.8714 67.1822 49.1744 67.2868 44.4115 72.5957C39.6487 77.9046 24.7921 85.5133 15.3818 74.919C13.616 88.0361 18.3844 95.3086 23.8325 100.667C30.1824 106.913 39.4117 112.277 56.8297 112.277H56.9119C74.3299 112.277 83.2375 107.053 89.5874 100.807C95.0367 95.449 100.643 89.9196 97.3638 74.4145Z" fill="#FAFBFB"/>
<path d="M41.3989 59.4984C44.521 59.2505 45.5442 55.4501 42.5063 54.6886C39.4317 53.918 36.6314 54.2407 35.7167 56.4012C34.802 58.5617 37.9085 59.4466 39.6613 59.5365C40.1505 59.5616 40.7411 59.5506 41.3989 59.4984Z" fill="#FFFCF3"/>
<path d="M72.7219 59.4864C69.5252 58.9691 68.8111 54.912 72.0049 54.3781C75.1656 53.8497 77.9258 54.43 78.5905 56.749C79.2553 59.0679 76.0495 59.7118 74.2879 59.6509C73.8383 59.6354 73.3074 59.5811 72.7219 59.4864Z" fill="#FFFCF3"/>
<path d="M81.4488 64.2716C76.3669 62.0262 72.5664 64.876 70.4686 67.1315C69.7792 67.8727 70.1284 69.0509 71.1073 69.3089C77.2908 70.9387 80.6732 68.282 82.0395 65.9666C82.408 65.3421 82.1121 64.5646 81.4488 64.2716Z" fill="black"/>
<path d="M32.0966 64.2724C37.1798 62.0247 40.981 64.8778 43.0786 67.135C43.7675 67.8763 43.4185 69.0541 42.4399 69.3122C36.2548 70.9438 32.8719 68.2843 31.506 65.9671C31.1379 65.3427 31.4337 64.5655 32.0966 64.2724Z" fill="black"/>
<path d="M76.2518 87.7968C76.119 87.7267 75.9738 87.6837 75.8245 87.6702C75.6752 87.6567 75.5247 87.6731 75.3817 87.7183C75.2386 87.7635 75.1058 87.8367 74.9908 87.9338C74.8758 88.0308 74.7809 88.1497 74.7114 88.2838C74.0779 89.3558 73.2351 90.2868 72.2342 91.0201C69.9755 92.6814 67.265 93.0725 64.1779 92.1821C59.2244 90.7538 58.1107 87.1778 57.9111 84.998C57.9533 84.4464 57.9548 83.8925 57.9157 83.3407C57.9226 83.2813 57.928 83.2414 57.9306 83.2255C57.9542 83.0761 57.9484 82.9235 57.9135 82.7764C57.8787 82.6292 57.8155 82.4905 57.7275 82.368C57.6395 82.2455 57.5284 82.1418 57.4007 82.0626C57.273 81.9834 57.131 81.9304 56.983 81.9066C56.8017 81.8739 56.6154 81.8847 56.4389 81.938C56.2625 81.9913 56.101 82.0857 55.9673 82.2135C55.8337 82.3414 55.7317 82.4991 55.6695 82.6741C55.6074 82.849 55.5868 83.0362 55.6095 83.2207C55.6122 83.2379 55.6179 83.2792 55.625 83.3416C55.586 83.8923 55.5876 84.4452 55.6296 84.9957C55.4305 87.1769 54.3172 90.7536 49.3631 92.1833C42.0952 94.2797 38.9601 88.5317 38.8275 88.2813C38.6849 88.0142 38.4437 87.8146 38.1562 87.726C37.8687 87.6373 37.5581 87.6667 37.292 87.8077C37.0258 87.9488 36.8256 88.1901 36.7347 88.4793C36.6438 88.7685 36.6696 89.0822 36.8066 89.3523C37.6003 90.7404 38.6756 91.9437 39.9622 92.8832C41.8004 94.2396 44.0223 94.9632 46.2995 94.9471C47.549 94.9387 48.7913 94.754 49.9901 94.3983C53.766 93.3096 55.7394 91.1621 56.7698 89.1585C57.8007 91.1627 59.7741 93.3096 63.5494 94.3983C64.7483 94.7541 65.9906 94.9388 67.2401 94.9471C69.5172 94.963 71.7389 94.2394 73.5772 92.8832C74.8638 91.9437 75.9392 90.7405 76.7328 89.3523C76.8024 89.2183 76.8453 89.0717 76.8588 88.921C76.8723 88.7703 76.8563 88.6184 76.8116 88.4739C76.767 88.3295 76.6945 88.1953 76.5985 88.0791C76.5024 87.963 76.3846 87.867 76.2518 87.7968Z" fill="black"/>
<path d="M63.4694 76.8175C63.4152 75.1671 59.6692 72.5123 56.7731 72.5123C53.877 72.5123 50.1316 75.1671 50.0769 76.8175C50.0223 78.4679 52.802 82.558 56.7731 83.5624C60.7444 82.558 63.5237 78.4679 63.4694 76.8175Z" fill="black"/>
</g>
<rect x="2.74292" y="2.24292" width="107.514" height="107.514" rx="53.7571" stroke="black" stroke-width="4.48583"/>
<defs>
<clipPath id="clip0">
</clipPath>
</defs>
</svg>
