<svg width="112" height="111" viewBox="0 0 112 111" fill="none" xmlns="http://www.w3.org/2000/svg">
<g clip-path="url(#clip0)">
<path d="M0 55.5C0 24.8482 24.9111 0 55.5629 0C86.2147 0 111.126 24.8482 111.126 55.5C111.126 86.1518 86.2147 111 55.5629 111C24.9111 111 0 86.1518 0 55.5Z" fill="#FF2E59"/>
<mask id="path-3-outside-1" maskUnits="userSpaceOnUse" x="8.39038" y="26.6875" width="95" height="91" fill="black">
<rect fill="white" x="8.39038" y="26.6875" width="95" height="91"/>
<path fill-rule="evenodd" clip-rule="evenodd" d="M69.811 40.7793C72.1984 38.955 78.348 34.5225 83.6298 32.9809C89.6169 31.2335 90.199 37.753 90.4323 40.3661C90.4608 40.6849 90.484 40.9456 90.5113 41.126C90.7187 42.4983 91.0881 49.3398 89.7346 55.1353C93.6456 60.9296 94.7788 66.7859 95.8086 72.1075C96.0333 73.2691 96.2532 74.4051 96.4959 75.5095C98.355 83.9687 95.2082 93.1772 88.9079 99.3668C82.6962 105.469 73.5347 111.045 56.5676 111.202C56.3381 111.204 56.1079 111.205 55.8769 111.205H55.8361C38.554 111.205 29.0645 105.557 22.7643 99.3668C22.0324 98.6512 21.3845 97.8546 20.8332 96.9925C20.4203 96.3452 20.0076 95.7238 19.6017 95.1128C16.8359 90.9487 14.3903 87.2668 14.3904 79.1488C14.7019 72.4023 16.601 60.5234 21.5578 53.2605C20.6563 47.9479 20.9711 42.3526 21.1564 41.1261C21.1836 40.9457 21.2069 40.6852 21.2353 40.3665L21.2354 40.3665C21.4686 37.7535 22.0506 31.2334 28.0379 32.9809C33.3207 34.5228 39.4715 38.9567 41.858 40.7803C49.5006 38.4324 55.8361 38.7823 55.8361 38.7823C55.8361 38.7823 62.1699 38.4325 69.811 40.7793Z"/>
</mask>
<path fill-rule="evenodd" clip-rule="evenodd" d="M69.811 40.7793C72.1984 38.955 78.348 34.5225 83.6298 32.9809C89.6169 31.2335 90.199 37.753 90.4323 40.3661C90.4608 40.6849 90.484 40.9456 90.5113 41.126C90.7187 42.4983 91.0881 49.3398 89.7346 55.1353C93.6456 60.9296 94.7788 66.7859 95.8086 72.1075C96.0333 73.2691 96.2532 74.4051 96.4959 75.5095C98.355 83.9687 95.2082 93.1772 88.9079 99.3668C82.6962 105.469 73.5347 111.045 56.5676 111.202C56.3381 111.204 56.1079 111.205 55.8769 111.205H55.8361C38.554 111.205 29.0645 105.557 22.7643 99.3668C22.0324 98.6512 21.3845 97.8546 20.8332 96.9925C20.4203 96.3452 20.0076 95.7238 19.6017 95.1128C16.8359 90.9487 14.3903 87.2668 14.3904 79.1488C14.7019 72.4023 16.601 60.5234 21.5578 53.2605C20.6563 47.9479 20.9711 42.3526 21.1564 41.1261C21.1836 40.9457 21.2069 40.6852 21.2353 40.3665L21.2354 40.3665C21.4686 37.7535 22.0506 31.2334 28.0379 32.9809C33.3207 34.5228 39.4715 38.9567 41.858 40.7803C49.5006 38.4324 55.8361 38.7823 55.8361 38.7823C55.8361 38.7823 62.1699 38.4325 69.811 40.7793Z" fill="#C47031"/>
<path d="M83.6298 32.9809L85.3109 38.7406L85.3109 38.7406L83.6298 32.9809ZM69.811 40.7793L68.0495 46.5149L71.0008 47.4213L73.454 45.5468L69.811 40.7793ZM90.4323 40.3661L96.4085 39.8325V39.8325L90.4323 40.3661ZM90.5113 41.126L84.5786 42.0224L84.5787 42.0225L90.5113 41.126ZM89.7346 55.1353L83.8918 53.7707L83.2961 56.3211L84.7614 58.492L89.7346 55.1353ZM95.8086 72.1075L101.699 70.9676V70.9676L95.8086 72.1075ZM96.4959 75.5095L90.6357 76.7974V76.7974L96.4959 75.5095ZM88.9079 99.3668L93.1127 103.647L93.1128 103.647L88.9079 99.3668ZM56.5676 111.202L56.5122 105.202L56.5084 105.202L56.5676 111.202ZM22.7643 99.3668L26.9693 95.0869L26.9641 95.0818L26.9589 95.0767L22.7643 99.3668ZM20.8332 96.9925L15.7747 100.219L15.7784 100.225L20.8332 96.9925ZM19.6017 95.1128L14.6038 98.4325L14.6038 98.4325L19.6017 95.1128ZM14.3904 79.1488L8.39677 78.872L8.39038 79.0103L8.39038 79.1487L14.3904 79.1488ZM21.5578 53.2605L26.5137 56.6428L27.8782 54.6433L27.4732 52.2567L21.5578 53.2605ZM21.1564 41.1261L15.2237 40.2299L15.2237 40.2299L21.1564 41.1261ZM21.2353 40.3665L27.2116 40.9L27.2149 40.8633L27.2177 40.8267L21.2353 40.3665ZM21.2354 40.3665L15.2591 39.833L15.2558 39.8696L15.253 39.9063L21.2354 40.3665ZM28.0379 32.9809L29.719 27.2212L28.0379 32.9809ZM41.858 40.7803L38.2149 45.5477L40.6683 47.4226L43.62 46.5158L41.858 40.7803ZM55.8361 38.7823L55.5052 44.7732L55.8361 44.7915L56.1669 44.7732L55.8361 38.7823ZM81.9487 27.2212C75.4613 29.1147 68.5026 34.2279 66.1681 36.0118L73.454 45.5468C75.8942 43.6822 81.2347 39.9303 85.3109 38.7406L81.9487 27.2212ZM96.4085 39.8325C96.3118 38.749 96.0755 35.2137 94.4878 32.2241C93.6156 30.5818 92.1229 28.6758 89.6541 27.5615C87.1375 26.4255 84.45 26.4911 81.9487 27.2212L85.3109 38.7406C85.8031 38.5969 85.4335 38.8222 84.7172 38.4989C84.0487 38.1971 83.8387 37.7567 83.8896 37.8525C83.9571 37.9796 84.0945 38.3328 84.2185 38.985C84.3373 39.6096 84.3967 40.2346 84.4561 40.8997L96.4085 39.8325ZM96.4439 40.2296C96.4496 40.267 96.4515 40.2846 96.4502 40.2734C96.449 40.2636 96.4464 40.2407 96.4423 40.1996C96.4334 40.111 96.4236 40.0011 96.4085 39.8325L84.4561 40.8997C84.4769 41.1331 84.5173 41.6163 84.5786 42.0224L96.4439 40.2296ZM95.5773 56.4999C97.1394 49.8115 96.7392 42.1831 96.4439 40.2295L84.5787 42.0225C84.5758 42.0036 84.5911 42.1102 84.6134 42.3794C84.6339 42.6268 84.6557 42.9557 84.6741 43.3553C84.711 44.155 84.7322 45.1886 84.7094 46.3548C84.663 48.7333 84.4374 51.4345 83.8918 53.7707L95.5773 56.4999ZM101.699 70.9676C100.679 65.6937 99.382 58.7037 94.7077 51.7785L84.7614 58.492C87.9092 63.1555 88.8789 67.8781 89.9179 73.2474L101.699 70.9676ZM102.356 74.2216C102.132 73.2039 101.927 72.1432 101.699 70.9676L89.9179 73.2474C90.1399 74.3949 90.374 75.6063 90.6357 76.7974L102.356 74.2216ZM93.1128 103.647C100.72 96.1733 104.706 84.9157 102.356 74.2216L90.6357 76.7974C92.0037 83.0217 89.6964 90.1811 84.7031 95.0867L93.1128 103.647ZM56.623 117.202C75.1811 117.03 85.8196 110.812 93.1127 103.647L84.7031 95.0867C79.5728 100.127 71.8884 105.06 56.5122 105.202L56.623 117.202ZM55.8769 117.205C56.1274 117.205 56.3774 117.204 56.6268 117.202L56.5084 105.202C56.2988 105.204 56.0883 105.205 55.8769 105.205V117.205ZM55.8361 117.205H55.8769V105.205H55.8361V117.205ZM18.5592 103.647C25.9719 110.93 36.9677 117.205 55.8361 117.205V105.205C40.1404 105.205 32.1572 100.184 26.9693 95.0869L18.5592 103.647ZM15.7784 100.225C16.5754 101.471 17.5118 102.623 18.5696 103.657L26.9589 95.0767C26.5529 94.6797 26.1936 94.238 25.888 93.7601L15.7784 100.225ZM14.6038 98.4325C15.0139 99.05 15.3963 99.6261 15.7747 100.219L25.8917 93.7658C25.4442 93.0643 25.0012 92.3976 24.5997 91.7931L14.6038 98.4325ZM8.39038 79.1487C8.39035 83.8524 9.1063 87.5539 10.3684 90.7923C11.5938 93.9363 13.2573 96.4053 14.6038 98.4325L24.5997 91.7931C23.1803 89.6562 22.2382 88.2022 21.5493 86.4347C20.8972 84.7616 20.3904 82.5632 20.3904 79.1488L8.39038 79.1487ZM16.602 49.8783C13.5389 54.3664 11.6101 59.9481 10.3979 64.9977C9.16839 70.1193 8.56844 75.1542 8.39677 78.872L20.384 79.4255C20.5238 76.3969 21.0292 72.1192 22.0664 67.7989C23.1208 63.4068 24.6199 59.4176 26.5137 56.6428L16.602 49.8783ZM27.4732 52.2567C27.0938 50.0205 26.9593 47.6387 26.9495 45.6317C26.9446 44.6403 26.9704 43.7759 27.0057 43.1111C27.0234 42.7788 27.0429 42.5078 27.0606 42.305C27.0799 42.0845 27.0923 42.0011 27.0891 42.0223L15.2237 40.2299C14.9484 42.0526 14.6286 48.2902 15.6424 54.2643L27.4732 52.2567ZM27.0891 42.0223C27.1504 41.6163 27.1908 41.1332 27.2116 40.9L15.2591 39.833C15.2441 40.0015 15.2342 40.1114 15.2253 40.2C15.2212 40.2411 15.2186 40.2639 15.2175 40.2737C15.2162 40.2849 15.2181 40.2673 15.2237 40.2299L27.0891 42.0223ZM27.2177 40.8267L27.2177 40.8267L15.253 39.9063L15.253 39.9063L27.2177 40.8267ZM27.2116 40.9C27.271 40.2349 27.3303 39.6099 27.4491 38.9853C27.5731 38.333 27.7105 37.9797 27.778 37.8526C27.829 37.7567 27.619 38.1971 26.9505 38.4989C26.2342 38.8222 25.8646 38.5969 26.3568 38.7406L29.719 27.2212C27.2176 26.4911 24.53 26.4255 22.0133 27.5616C19.5445 28.676 18.0519 30.5821 17.1797 32.2244C15.5921 35.2141 15.3558 38.7495 15.2591 39.833L27.2116 40.9ZM26.3568 38.7406C30.4339 39.9305 35.7755 43.6836 38.2149 45.5477L45.5011 36.013C43.1675 34.2297 36.2075 29.115 29.719 27.2212L26.3568 38.7406ZM55.8361 38.7823C56.1669 32.7915 56.1656 32.7914 56.1643 32.7913C56.1638 32.7913 56.1625 32.7912 56.1615 32.7912C56.1596 32.7911 56.1576 32.7909 56.1555 32.7908C56.1514 32.7906 56.1468 32.7904 56.1418 32.7901C56.1318 32.7896 56.1203 32.789 56.1072 32.7884C56.081 32.7871 56.0486 32.7856 56.0102 32.7841C55.9332 32.7809 55.832 32.7773 55.7077 32.774C55.4592 32.7674 55.118 32.7621 54.6941 32.7644C53.8473 32.769 52.6645 32.8039 51.2278 32.9205C48.3672 33.1526 44.4278 33.7141 40.096 35.0449L43.62 46.5158C46.9307 45.4987 49.9803 45.0612 52.1982 44.8812C53.3007 44.7918 54.1795 44.7674 54.7594 44.7643C55.0489 44.7627 55.2623 44.7664 55.3901 44.7698C55.454 44.7715 55.4963 44.7731 55.516 44.7739C55.5258 44.7743 55.5299 44.7745 55.5281 44.7744C55.5273 44.7744 55.5249 44.7742 55.5211 44.774C55.5192 44.774 55.5169 44.7738 55.5143 44.7737C55.513 44.7736 55.5115 44.7735 55.51 44.7735C55.5093 44.7734 55.5081 44.7734 55.5077 44.7733C55.5065 44.7733 55.5052 44.7732 55.8361 38.7823ZM71.5725 35.0437C67.2416 33.7135 63.3031 33.1524 60.4432 32.9204C59.0068 32.8039 57.8243 32.769 56.9777 32.7644C56.5539 32.7621 56.2128 32.7674 55.9643 32.774C55.8401 32.7773 55.7389 32.7809 55.662 32.7841C55.6235 32.7856 55.5911 32.7871 55.565 32.7884C55.5519 32.789 55.5403 32.7896 55.5304 32.7901C55.5254 32.7904 55.5208 32.7906 55.5166 32.7908C55.5145 32.7909 55.5125 32.7911 55.5106 32.7912C55.5097 32.7912 55.5083 32.7913 55.5079 32.7913C55.5065 32.7914 55.5052 32.7915 55.8361 38.7823C56.1669 44.7732 56.1657 44.7733 56.1644 44.7733C56.1641 44.7734 56.1629 44.7734 56.1621 44.7735C56.1606 44.7735 56.1592 44.7736 56.1578 44.7737C56.1552 44.7738 56.1529 44.774 56.151 44.7741C56.1472 44.7742 56.1449 44.7744 56.144 44.7744C56.1423 44.7745 56.1464 44.7743 56.1562 44.7739C56.1758 44.7731 56.2181 44.7715 56.282 44.7698C56.4098 44.7664 56.6231 44.7627 56.9125 44.7642C57.4923 44.7674 58.3709 44.7917 59.4731 44.8811C61.6904 45.061 64.7394 45.4983 68.0495 46.5149L71.5725 35.0437Z" fill="black" mask="url(#path-3-outside-1)"/>
<path d="M73.9341 42.3684C73.9341 42.3684 78.856 38.3695 82.9271 37.1875C86.9982 36.0055 86.9456 41.0956 87.0977 42.0953C87.2499 43.0951 87.5452 48.9119 85.9653 52.608C85.9653 52.608 82.9271 45.2809 73.9341 42.3684Z" fill="#F4F4F4"/>
<path d="M37.2383 41.9054C37.2383 41.9054 32.6513 37.5272 28.6875 36.0247C24.7237 34.5222 24.3697 39.6003 24.1384 40.5848C23.907 41.5692 23.1481 47.344 24.4279 51.1542C24.4279 51.1542 28.0497 43.9892 37.2383 41.9054Z" fill="#F4F4F4"/>
<path d="M96.1087 73.75C86.7724 84.249 73.0206 77.2088 68.295 71.9475C63.5693 66.6861 55.9324 66.5824 55.9324 66.5824C55.9324 66.5824 48.2954 66.6859 43.5698 71.9475C38.8441 77.209 24.1035 84.7497 14.7667 74.25C13.0147 87.25 17.7458 94.4575 23.1514 99.768C29.4517 105.958 38.609 111.275 55.891 111.275H55.9726C73.2546 111.275 82.0927 106.097 88.393 99.9072C93.7997 94.5967 99.3624 89.1167 96.1087 73.75Z" fill="#FAFBFB"/>
<path d="M40.5826 58.9669C43.6782 58.7208 44.6906 54.9547 41.6779 54.2004C38.6272 53.4366 35.8489 53.7564 34.9413 55.8977C34.0337 58.0389 37.1159 58.9159 38.8551 59.005C39.3413 59.0299 39.9286 59.0189 40.5826 58.9669Z" fill="#FFFCF3"/>
<path d="M71.6552 58.9548C68.4855 58.4418 67.7793 54.4215 70.947 53.8925C74.0829 53.3689 76.8216 53.944 77.4812 56.2423C78.1407 58.5405 74.96 59.1786 73.2121 59.1183C72.7652 59.1029 72.2374 59.049 71.6552 58.9548Z" fill="#FFFCF3"/>
<path d="M79.1568 63.2655C75.6732 62.2078 72.8649 63.537 70.8879 65.1513C69.3327 66.4211 70.0371 68.8234 72.0281 69.0813C76.1211 69.6115 78.7333 68.0891 80.1825 66.3858C81.1145 65.2905 80.533 63.6832 79.1568 63.2655Z" fill="black"/>
<path d="M32.5094 63.2661C35.9951 62.2066 38.8048 63.5383 40.7822 65.1548C42.3362 66.4251 41.632 68.8265 39.6416 69.0848C35.5459 69.6163 32.9327 68.0915 31.4835 66.3862C30.5525 65.2907 31.1338 63.6842 32.5094 63.2661Z" fill="black"/>
<path d="M75.1612 87.0129C75.0294 86.9434 74.8853 86.9008 74.7372 86.8874C74.5891 86.8741 74.4398 86.8903 74.2978 86.9351C74.1559 86.9799 74.0241 87.0525 73.91 87.1486C73.7959 87.2448 73.7018 87.3627 73.6329 87.4955C73.0042 88.558 72.168 89.4806 71.175 90.2075C68.9339 91.8538 66.2445 92.2415 63.1815 91.3591C58.2667 89.9435 57.1616 86.3994 56.9637 84.2391C57.0055 83.6924 57.007 83.1434 56.9682 82.5966C56.975 82.5377 56.9805 82.4982 56.9829 82.4824C57.0064 82.3344 57.0006 82.1831 56.966 82.0373C56.9315 81.8915 56.8687 81.754 56.7814 81.6326C56.6941 81.5112 56.584 81.4083 56.4572 81.3299C56.3305 81.2514 56.1897 81.1989 56.0428 81.1753C55.8629 81.1429 55.678 81.1536 55.503 81.2064C55.3279 81.2592 55.1677 81.3528 55.0351 81.4795C54.9025 81.6062 54.8012 81.7625 54.7396 81.9359C54.6779 82.1093 54.6575 82.2948 54.68 82.4776C54.6827 82.4947 54.6884 82.5356 54.6954 82.5975C54.6567 83.1433 54.6583 83.6912 54.6999 84.2368C54.5024 86.3985 53.3978 89.9433 48.4823 91.3602C41.2712 93.4379 38.1606 87.7412 38.029 87.493C37.8875 87.2283 37.6482 87.0305 37.3629 86.9427C37.0777 86.8548 36.7696 86.884 36.5055 87.0237C36.2414 87.1635 36.0427 87.4027 35.9525 87.6893C35.8624 87.9759 35.888 88.2868 36.0239 88.5545C36.8113 89.9302 37.8783 91.1227 39.1548 92.0538C40.9788 93.3981 43.1833 94.1153 45.4426 94.0993C46.6825 94.091 47.915 93.9079 49.1045 93.5555C52.8509 92.4765 54.8089 90.3481 55.8312 88.3624C56.8541 90.3488 58.8121 92.4765 62.558 93.5555C63.7475 93.9081 64.98 94.0911 66.2198 94.0993C68.4791 94.1151 70.6835 93.398 72.5074 92.0538C73.784 91.1228 74.851 89.9303 75.6384 88.5545C75.7075 88.4217 75.75 88.2764 75.7634 88.1271C75.7769 87.9777 75.761 87.8272 75.7166 87.684C75.6723 87.5408 75.6005 87.4079 75.5052 87.2927C75.4099 87.1776 75.293 87.0825 75.1612 87.0129Z" fill="black"/>
<path d="M62.4778 76.1316C62.424 74.4959 58.7073 71.8648 55.8338 71.8648C52.9604 71.8648 49.2441 74.4959 49.1899 76.1316C49.1356 77.7673 51.8937 81.8208 55.8338 82.8163C59.7741 81.8208 62.5317 77.7673 62.4778 76.1316Z" fill="black"/>
</g>
<path d="M55.5629 105C28.2159 105 6 82.8293 6 55.5H-6C-6 89.4744 21.6062 117 55.5629 117V105ZM105.126 55.5C105.126 82.8293 82.9098 105 55.5629 105V117C89.5195 117 117.126 89.4744 117.126 55.5H105.126ZM55.5629 6C82.9098 6 105.126 28.1707 105.126 55.5H117.126C117.126 21.5256 89.5195 -6 55.5629 -6V6ZM55.5629 -6C21.6062 -6 -6 21.5256 -6 55.5H6C6 28.1707 28.2159 6 55.5629 6V-6Z" fill="black"/>
<defs>
<clipPath id="clip0">
<path d="M0 55.5C0 24.8482 24.9111 0 55.5629 0C86.2147 0 111.126 24.8482 111.126 55.5C111.126 86.1518 86.2147 111 55.5629 111C24.9111 111 0 86.1518 0 55.5Z" fill="white"/>
</clipPath>
</defs>
</svg>