<svg x="0" y="0" viewBox="0 0 378 56" fill="none" xmlns="http://www.w3.org/2000/svg">
<g clip-path="url(#clip0)">
<path d="M45.39 44.33L29.5 25.83L43.39 11.31L41.95 9.92001L43.39 11.31L43.45 11.24L43.51 11.17C44.4999 9.93592 45.0584 8.41154 45.1 6.83001C45.0842 5.01135 44.3499 3.27271 43.0573 1.99325C41.7648 0.713787 40.0187 -0.00270095 38.2 7.65181e-06C37.2028 0.0300653 36.2227 0.265868 35.3209 0.692635C34.4192 1.1194 33.6154 1.72792 32.96 2.48L14.8 20.98V7.48C14.8 6.50822 14.6086 5.54595 14.2367 4.64814C13.8648 3.75033 13.3197 2.93457 12.6326 2.24741C11.9454 1.56026 11.1297 1.01517 10.2319 0.643288C9.33405 0.271403 8.37178 0.0800095 7.4 0.0800095C6.42822 0.0800095 5.46595 0.271403 4.56814 0.643288C3.67033 1.01517 2.85457 1.56026 2.16741 2.24741C1.48026 2.93457 0.935178 3.75033 0.563293 4.64814C0.191409 5.54595 -4.09575e-08 6.50822 0 7.48V48.16C0 50.1226 0.779643 52.0048 2.16741 53.3926C3.55518 54.7804 5.4374 55.56 7.4 55.56C9.36829 55.5338 11.2474 54.7348 12.6318 53.3354C14.0162 51.936 14.7949 50.0485 14.8 48.08V41.19L20.06 35.71L35.26 53.21L36.73 51.85L35.26 53.21C35.8998 53.9051 36.6712 54.4663 37.5295 54.8611C38.3878 55.2559 39.3159 55.4765 40.26 55.51C42.0592 55.5127 43.7864 54.8033 45.0643 53.5366C46.3421 52.27 47.0668 50.5492 47.08 48.75C47.0898 47.1015 46.4794 45.5095 45.37 44.29L45.39 44.33Z" fill="#310707"/>
<path d="M302.87 13.1801C299.545 13.2527 296.37 14.5777 293.98 16.8901L293.41 17.4601C292.702 15.9686 291.506 14.7639 290.019 14.0457C288.532 13.3275 286.845 13.139 285.237 13.5113C283.628 13.8837 282.195 14.7945 281.176 16.0929C280.156 17.3913 279.611 18.9992 279.63 20.6501V48.16C279.7 50.0376 280.495 51.815 281.848 53.1186C283.201 54.4223 285.006 55.1507 286.885 55.1507C288.764 55.1507 290.57 54.4223 291.922 53.1186C293.275 51.815 294.07 50.0376 294.14 48.16V31.6501C294.414 30.5111 295.061 29.4969 295.98 28.7701C297.39 27.5445 299.202 26.8791 301.07 26.9001C303.291 27.0139 305.487 26.384 307.31 25.1101C308.092 24.511 308.721 23.7361 309.146 22.8482C309.572 21.9603 309.782 20.9845 309.76 20.0001C309.796 18.2539 309.167 16.5594 308 15.2601C307.338 14.5735 306.54 14.0336 305.656 13.6753C304.772 13.317 303.823 13.1483 302.87 13.1801Z" fill="#310707"/>
<path d="M373.3 17.91C371.921 16.3691 370.222 15.1476 368.322 14.3307C366.422 13.5138 364.367 13.1211 362.3 13.18C359.745 13.1745 357.225 13.7743 354.946 14.9302C352.668 16.086 350.695 17.7651 349.19 19.83C348.16 18.1693 346.798 16.7394 345.19 15.63C342.703 13.9801 339.774 13.1257 336.79 13.18C333.094 13.1302 329.509 14.4358 326.71 16.85C326.48 17.05 326.26 17.27 326.04 17.48C325.336 15.9843 324.141 14.7746 322.655 14.052C321.168 13.3293 319.479 13.1372 317.868 13.5075C316.256 13.8779 314.821 14.7884 313.799 16.0877C312.777 17.3871 312.23 18.997 312.25 20.65V48.16C312.25 50.0854 313.015 51.932 314.376 53.2936C315.738 54.6551 317.585 55.42 319.51 55.42C321.436 55.42 323.282 54.6551 324.644 53.2936C326.005 51.932 326.77 50.0854 326.77 48.16V31.66C326.992 30.5118 327.463 29.4264 328.15 28.48C328.668 27.7238 329.369 27.1103 330.187 26.6961C331.005 26.2819 331.914 26.0803 332.83 26.11C333.469 26.0691 334.109 26.1708 334.704 26.4077C335.299 26.6447 335.834 27.0109 336.27 27.48C337.08 28.39 337.74 30 337.74 32.68V48.16C337.81 50.0375 338.605 51.8149 339.958 53.1185C341.311 54.4222 343.116 55.1506 344.995 55.1506C346.874 55.1506 348.68 54.4222 350.032 53.1185C351.385 51.8149 352.18 50.0375 352.25 48.16V31.67C352.484 30.5202 352.965 29.435 353.66 28.49C354.175 27.7342 354.871 27.12 355.686 26.7041C356.5 26.2882 357.406 26.0839 358.32 26.11C358.97 26.069 359.62 26.1704 360.226 26.4071C360.833 26.6437 361.38 27.0099 361.83 27.48C362.64 28.39 363.3 29.99 363.3 32.68V48.16C363.37 50.0375 364.165 51.8149 365.518 53.1185C366.871 54.4222 368.676 55.1506 370.555 55.1506C372.434 55.1506 374.24 54.4222 375.592 53.1185C376.945 51.8149 377.74 50.0375 377.81 48.16V32.68C377.81 26.1 376.19 21.2 373.3 17.91Z" fill="#310707"/>
<path d="M150.2 23.4099L148.29 22.82L150.2 23.4099C150.33 22.9799 150.44 22.74 150.64 22.18C150.865 21.602 150.99 20.9899 151.01 20.37C151.025 19.4466 150.854 18.5297 150.507 17.6737C150.161 16.8177 149.646 16.0401 148.993 15.3871C148.34 14.7341 147.562 14.219 146.706 13.8725C145.85 13.526 144.933 13.3551 144.01 13.37C142.668 13.3545 141.353 13.7416 140.233 14.4814C139.114 15.2212 138.242 16.2796 137.73 17.5199L133.01 32.2099L127.16 17.7399L125.31 18.4899L127.15 17.7399C126.623 16.4517 125.738 15.3413 124.6 14.54C123.392 13.769 121.988 13.3594 120.555 13.3594C119.122 13.3594 117.718 13.769 116.51 14.54C115.372 15.3413 114.487 16.4517 113.96 17.7399L115.8 18.53L113.97 17.7399L108.07 32.2099L103.39 17.53L101.49 18.1299L103.38 17.53C102.885 16.2734 102.017 15.1988 100.892 14.4514C99.7672 13.7039 98.4402 13.3195 97.09 13.3499C96.1666 13.3351 95.2497 13.506 94.3937 13.8525C93.5378 14.199 92.7601 14.7141 92.1072 15.3671C91.4542 16.0201 90.9391 16.7977 90.5926 17.6537C90.246 18.5097 90.0751 19.4266 90.09 20.3499C90.1072 20.9693 90.2289 21.5812 90.45 22.1599C90.65 22.7199 90.76 22.96 90.89 23.39L92.77 22.73L90.89 23.39L100.18 49.75C100.64 51.2848 101.545 52.6488 102.78 53.67C104.013 54.6293 105.538 55.1375 107.1 55.11C110.23 55.11 112.8 53.1099 114.1 49.8799L120.47 35.31L126.78 49.8799C127.347 51.3686 128.3 52.6799 129.54 53.68C130.783 54.6265 132.308 55.1299 133.87 55.11C136.99 55.11 139.61 53.11 140.72 49.75L150.2 23.4099Z" fill="#310707"/>
<path d="M184.48 13.3199C183.298 13.3239 182.135 13.6144 181.09 14.1665C180.045 14.7186 179.149 15.5159 178.48 16.4899C175.906 14.27 172.609 13.0679 169.21 13.11C160.36 13.11 149.86 20.2399 149.86 34.2599C149.86 48.57 160.29 55.4799 169.21 55.4799C172.581 55.5459 175.868 54.4277 178.5 52.3199C179.39 53.5811 180.655 54.5287 182.116 55.0274C183.577 55.526 185.158 55.5503 186.633 55.0966C188.108 54.643 189.402 53.7346 190.33 52.5014C191.258 51.2681 191.773 49.7731 191.8 48.2299V20.5099C191.748 18.5969 190.956 16.7785 189.591 15.4375C188.226 14.0965 186.394 13.3374 184.48 13.3199ZM175.39 40.7899C174.248 41.8672 172.74 42.4712 171.17 42.4799C167.96 42.4799 164.39 39.9999 164.39 34.2599C164.39 28.5199 167.95 26.11 171.17 26.11C172.741 26.1147 174.25 26.7192 175.39 27.8C176.61 28.96 177.67 30.9399 177.67 34.2599C177.67 37.5799 176.6 39.6199 175.39 40.7899Z" fill="#310707"/>
<path d="M79.9301 13.32C78.7487 13.3265 77.5863 13.6181 76.5417 14.17C75.4972 14.7218 74.6012 15.5177 73.9301 16.49C71.36 14.2699 68.066 13.0676 64.6701 13.11C55.8101 13.11 45.3101 20.24 45.3101 34.26C45.3101 48.57 55.7501 55.48 64.6701 55.48C68.0383 55.5478 71.3232 54.4293 73.9501 52.32C74.8419 53.579 76.1083 54.5246 77.5689 55.0219C79.0295 55.5192 80.6097 55.543 82.0846 55.0898C83.5595 54.6366 84.8537 53.7295 85.783 52.4978C86.7122 51.2661 87.2291 49.7726 87.2601 48.23V20.51C87.2083 18.5952 86.4151 16.7754 85.0477 15.4341C83.6802 14.0928 81.8454 13.3348 79.9301 13.32ZM70.8201 40.79C69.6828 41.8683 68.1773 42.4727 66.6101 42.48C63.3901 42.48 59.8201 40 59.8201 34.26C59.8201 28.52 63.3801 26.11 66.6101 26.11C68.18 26.1187 69.6881 26.7227 70.8301 27.8C72.0501 28.96 73.1101 30.94 73.1101 34.26C73.1101 37.58 72.0401 39.62 70.8201 40.79Z" fill="#310707"/>
<path d="M267.66 13.3199C266.478 13.3239 265.315 13.6144 264.27 14.1665C263.225 14.7186 262.329 15.5159 261.66 16.4899C259.086 14.27 255.789 13.0679 252.39 13.11C243.54 13.11 233.04 20.2399 233.04 34.2599C233.04 48.57 243.47 55.4799 252.39 55.4799C255.761 55.5459 259.048 54.4277 261.68 52.3199C262.57 53.5811 263.835 54.5287 265.296 55.0274C266.757 55.526 268.338 55.5503 269.813 55.0966C271.288 54.643 272.582 53.7346 273.51 52.5014C274.438 51.2681 274.953 49.7731 274.98 48.2299V20.5099C274.928 18.5969 274.137 16.7785 272.771 15.4375C271.406 14.0965 269.574 13.3374 267.66 13.3199ZM258.56 40.7899C257.431 41.8556 255.943 42.4587 254.39 42.4799C251.18 42.4799 247.61 39.9999 247.61 34.2599C247.61 28.5199 251.17 26.11 254.39 26.11C255.961 26.1147 257.47 26.7192 258.61 27.8C259.83 28.96 260.89 30.9399 260.89 34.2599C260.89 37.5799 259.78 39.6199 258.56 40.7899Z" fill="#310707"/>
<path d="M227.75 13.98C228.654 14.0149 229.555 13.867 230.4 13.5453C231.245 13.2236 232.017 12.7345 232.668 12.1076C233.32 11.4806 233.838 10.7285 234.193 9.89643C234.547 9.06434 234.729 8.16934 234.729 7.26504C234.729 6.36074 234.547 5.46574 234.193 4.63365C233.838 3.80156 233.32 3.0495 232.668 2.42251C232.017 1.79553 231.245 1.30651 230.4 0.984767C229.555 0.663021 228.654 0.515167 227.75 0.550044H204.39C203.331 0.519655 202.277 0.70579 201.293 1.09707C200.309 1.48835 199.415 2.07653 198.666 2.82554C197.917 3.57455 197.328 4.46864 196.937 5.45298C196.546 6.43733 196.36 7.49122 196.39 8.55004V47.98C196.41 49.9623 197.201 51.8589 198.596 53.2681C199.99 54.6773 201.878 55.4886 203.86 55.53C205.827 55.4829 207.698 54.6654 209.068 53.2535C210.439 51.8415 211.201 49.9479 211.19 47.98V35.68H224.39C226.133 35.68 227.804 34.9878 229.036 33.7557C230.268 32.5236 230.96 30.8525 230.96 29.11C230.96 27.3676 230.268 25.6965 229.036 24.4644C227.804 23.2322 226.133 22.54 224.39 22.54H211.25V13.98H227.75Z" fill="#310707"/>
</g>
<defs>
<clipPath id="clip0">
<rect width="377.82" height="55.55" fill="white"/>
</clipPath>
</defs>
</svg>
