<svg width="18" height="18" viewBox="0 0 18 18" fill="none" xmlns="http://www.w3.org/2000/svg">
<path d="M15.8752 9.47498V8.99998V8.51873L17.0752 7.46873C17.2964 7.27376 17.4415 7.00687 17.485 6.71523C17.5284 6.42359 17.4674 6.12597 17.3127 5.87498L15.8377 3.37498C15.7281 3.18514 15.5705 3.02747 15.3807 2.91777C15.1909 2.80807 14.9756 2.7502 14.7564 2.74998C14.6206 2.74894 14.4855 2.77005 14.3564 2.81248L12.8377 3.32498C12.5754 3.15073 12.3019 2.99414 12.0189 2.85623L11.7002 1.28123C11.643 0.993483 11.4865 0.735005 11.2579 0.551043C11.0294 0.367082 10.7435 0.269358 10.4502 0.274979H7.52516C7.23184 0.269358 6.9459 0.367082 6.71737 0.551043C6.48885 0.735005 6.33231 0.993483 6.27516 1.28123L5.95641 2.85623C5.67137 2.9941 5.39576 3.1507 5.13141 3.32498L3.64391 2.78748C3.51347 2.75349 3.37839 2.74083 3.24391 2.74998C3.0247 2.7502 2.80941 2.80807 2.61963 2.91777C2.42985 3.02747 2.27226 3.18514 2.16266 3.37498L0.687658 5.87498C0.541775 6.1256 0.487565 6.41914 0.534314 6.70533C0.581062 6.99152 0.72586 7.25256 0.943908 7.44373L2.12516 8.52498V9.48123L0.943908 10.5312C0.719701 10.7237 0.570942 10.9894 0.524032 11.2812C0.477121 11.573 0.535093 11.8719 0.687658 12.125L2.16266 14.625C2.27226 14.8148 2.42985 14.9725 2.61963 15.0822C2.80941 15.1919 3.0247 15.2498 3.24391 15.25C3.37975 15.251 3.51486 15.2299 3.64391 15.1875L5.16266 14.675C5.42487 14.8492 5.69839 15.0058 5.98141 15.1437L6.30016 16.7187C6.35731 17.0065 6.51385 17.265 6.74237 17.4489C6.9709 17.6329 7.25684 17.7306 7.55016 17.725H10.5002C10.7935 17.7306 11.0794 17.6329 11.3079 17.4489C11.5365 17.265 11.693 17.0065 11.7502 16.7187L12.0689 15.1437C12.3539 15.0059 12.6295 14.8493 12.8939 14.675L14.4064 15.1875C14.5355 15.2299 14.6706 15.251 14.8064 15.25C15.0256 15.2498 15.2409 15.1919 15.4307 15.0822C15.6205 14.9725 15.7781 14.8148 15.8877 14.625L17.3127 12.125C17.4585 11.8744 17.5127 11.5808 17.466 11.2946C17.4193 11.0084 17.2745 10.7474 17.0564 10.5562L15.8752 9.47498ZM14.7564 14L12.6127 13.275C12.1108 13.7 11.5373 14.0323 10.9189 14.2562L10.4752 16.5H7.52516L7.08141 14.2812C6.46792 14.051 5.89748 13.7193 5.39391 13.3L3.24391 14L1.76891 11.5L3.46891 9.99998C3.35334 9.35302 3.35334 8.69069 3.46891 8.04373L1.76891 6.49998L3.24391 3.99998L5.38766 4.72498C5.88949 4.29991 6.46303 3.96764 7.08141 3.74373L7.52516 1.49998H10.4752L10.9189 3.71873C11.5324 3.94899 12.1028 4.28069 12.6064 4.69998L14.7564 3.99998L16.2314 6.49998L14.5314 7.99998C14.647 8.64694 14.647 9.30927 14.5314 9.95623L16.2314 11.5L14.7564 14Z" fill="#710D21"/>
</svg>
